Coordinates
version=1
nRows=7
nColumns=26
inDegrees=yes

Units are S.I. units (second, meters, Newtons, ...)
Angles are in degrees.

endheader
time	pelvis_tilt	pelvis_list	pelvis_rotation	pelvis_tx	pelvis_ty	pelvis_tz	hip_flexion_r	hip_adduction_r	hip_rotation_r	knee_angle_r	knee_angle_r_beta	ankle_angle_r	subtalar_angle_r	mtp_angle_r	hip_flexion_l	hip_adduction_l	hip_rotation_l	knee_angle_l	knee_angle_l_beta	ankle_angle_l	subtalar_angle_l	mtp_angle_l	lumbar_extension	lumbar_bending	lumbar_rotation
      0.55000000000000004000	      2.93321050295135420000	      0.54568589060320949000	      3.20143984117521010000	      0.64261654487280195000	      0.99971929927392367000	      0.16661939733015199000	     17.80988773193927000000	     -0.97638317875772440000	     -5.37470399277613180000	      4.62996702083337470000	      4.62996702083337470000	     -2.04425218249670420000	      0.00000000000000000000	      0.00000000000000000000	    -13.69867692623877900000	      0.89044392970140152000	     -4.78457954652888160000	     11.66787044895492500000	     11.66787044895492500000	     14.78268815466744000000	      0.00000000000000000000	      0.00000000000000000000	    -16.50438614797955600000	     -0.36840020242538918000	     -1.75008025349373990000
      0.55833333333333335000	      3.10963531546646750000	      0.37557302439168500000	      3.34033609043425580000	      0.65267398231058316000	      0.99886561707516830000	      0.16751214939406051000	     17.62206986418378900000	     -0.67091117093277064000	     -5.30479623798900320000	      5.63416364797168430000	      5.63416364797168430000	     -2.59590533628277290000	      0.00000000000000000000	      0.00000000000000000000	    -14.24090298716993400000	      0.50810265499853313000	     -4.83516887861797160000	     12.19275884984049600000	     12.19275884984049600000	     14.89951326208948300000	      0.00000000000000000000	      0.00000000000000000000	    -16.56923439013226900000	     -0.06600564500271168000	     -1.91172980505121880000
      0.56666666666666665000	      3.20867901772001220000	      0.27066247248688929000	      3.48698841242734710000	      0.66291980572420306000	      0.99820999961649670000	      0.16835733632155131000	     17.37546092674196200000	     -0.44573932549135442000	     -4.85809438489097280000	      6.34232094761013430000	      6.34232094761013430000	     -3.05767229648929330000	      0.00000000000000000000	      0.00000000000000000000	    -14.71810020880172100000	      0.21744692956498995000	     -4.72007489129783050000	     12.63272753447195400000	     12.63272753447195400000	     14.75171132704922000000	      0.00000000000000000000	      0.00000000000000000000	    -16.52107554317350600000	      0.20398393925195571000	     -2.06378645212239990000
      0.57499999999999996000	      3.50008061485592090000	      0.07655427905622504100	      3.54362094284374280000	      0.67317152220606968000	      0.99775449273934114000	      0.16941505253310363000	     17.05085491838416800000	     -0.11033825768459979000	     -4.92533132074199910000	      7.22650804655892460000	      7.22650804655892460000	     -3.71257339172613410000	      0.00000000000000000000	      0.00000000000000000000	    -15.15205188736317700000	     -0.22971417375451547000	     -5.29449996075560140000	     13.64682008876255500000	     13.64682008876255500000	     14.99028415016712200000	      0.00000000000000000000	      0.00000000000000000000	    -16.70104242967839500000	      0.53359164082891208000	     -2.13922591978885720000
      0.58333333333333337000	      3.62488478629152370000	      0.01825770207913662200	      3.55507575575560870000	      0.68352697724697931000	      0.99722119947257093000	      0.17041107097911184000	     16.81429103413319800000	      0.07208146606158817600	     -4.75157979121494380000	      7.92339181981892970000	      7.92339181981892970000	     -4.81849477801676770000	      0.00000000000000000000	      0.00000000000000000000	    -15.47927544498529600000	     -0.49563001347802760000	     -5.39659580430400700000	     14.49811168104843700000	     14.49811168104843700000	     14.87373160644924400000	      0.00000000000000000000	      0.00000000000000000000	    -16.66972301191292900000	      0.71559376322964030000	     -2.17536850996181830000
      0.59166666666666667000	      3.74152366099395330000	     -0.09289789607676865500	      3.56753762997001900000	      0.69401395743797778000	      0.99679634719606924000	      0.17130180116530580000	     16.53103706458795600000	      0.26637707380776859000	     -4.50994963222224320000	      8.57778902029429700000	      8.57778902029429700000	     -5.54377590438500880000	      0.00000000000000000000	      0.00000000000000000000	    -15.82640650602170700000	     -0.78480066221557065000	     -5.16424409323341840000	     15.24792489422796400000	     15.24792489422796400000	     14.53104133408821900000	      0.00000000000000000000	      0.00000000000000000000	    -16.61003461875274200000	      0.97964683542655917000	     -2.16860793944961740000
      0.59999999999999998000	      3.93904438079393770000	     -0.25880417736135175000	      3.66477890329904320000	      0.70456883445955543000	      0.99652231185843287000	      0.17213507575421291000	     16.15981715336955900000	      0.46798097521495458000	     -4.99368729654041310000	      9.22479167235866630000	      9.22479167235866630000	     -6.34576199789722220000	      0.00000000000000000000	      0.00000000000000000000	    -15.83568560298125400000	     -1.24979992113946840000	     -5.45170433731763370000	     16.92706968147239600000	     16.92706968147239600000	     14.71783649296364500000	      0.00000000000000000000	      0.00000000000000000000	    -16.62793832801197900000	      1.30584018270616250000	     -2.14689740709296830000
